<?xml version="1.0" encoding="utf-8"?>
<!-- Generator: Adobe Illustrator 16.0.0, SVG Export Plug-In . SVG Version: 6.00 Build 0)  -->
<!DOCTYPE svg PUBLIC "-//W3C//DTD SVG 1.1//EN" "http://www.w3.org/Graphics/SVG/1.1/DTD/svg11.dtd">
<svg version="1.1" id="Layer_1" xmlns="http://www.w3.org/2000/svg" xmlns:xlink="http://www.w3.org/1999/xlink" x="0px" y="0px"
	 width="55px" height="55px" viewBox="0 0 55 55" enable-background="new 0 0 55 55" xml:space="preserve">
<g>
	<path fill="#FFFFFF" d="M43.014,38.758c2.336,0,4.235,1.9,4.235,4.236s-1.899,4.234-4.235,4.234H12.146
		c-0.599,0-1.182-0.125-1.731-0.373l-0.896-0.402l-0.422,0.225l0.168-0.389l-0.62-0.91C8.164,44.674,7.91,43.85,7.91,42.994
		c0-2.336,1.9-4.236,4.236-4.236H43.014 M43.014,36.758H12.146c-3.443,0-6.236,2.793-6.236,6.236c0,1.303,0.401,2.512,1.083,3.512
		c-0.511,1.184-1.539,2.529-3.583,3.664c0,0,3.397-0.002,6.185-1.49c0.779,0.352,1.642,0.549,2.552,0.549h30.867
		c3.443,0,6.236-2.791,6.236-6.232C49.249,39.551,46.456,36.758,43.014,36.758L43.014,36.758z"/>
</g>
<g>
	<path fill="#FFFFFF" d="M43.014,6.83c2.336,0,4.235,1.9,4.235,4.236s-1.899,4.235-4.235,4.235H12.146
		c-0.598,0-1.18-0.126-1.731-0.374l-0.896-0.402L9.098,14.75l0.167-0.388l-0.619-0.91c-0.482-0.707-0.736-1.531-0.736-2.387
		c0-2.336,1.9-4.236,4.236-4.236H43.014 M43.014,4.83H12.146c-3.443,0-6.236,2.793-6.236,6.236c0,1.305,0.401,2.512,1.083,3.514
		c-0.511,1.182-1.539,2.527-3.583,3.664c0,0,3.397-0.004,6.185-1.491c0.779,0.351,1.642,0.55,2.552,0.55h30.867
		c3.443,0,6.236-2.791,6.236-6.234C49.25,7.623,46.456,4.83,43.014,4.83L43.014,4.83z"/>
</g>
<g>
	<path fill="#FFFFFF" d="M43.369,22.705c2.336,0,4.236,1.899,4.236,4.234c0,0.854-0.256,1.68-0.737,2.387l-0.621,0.91l0.168,0.389
		l-0.42-0.225l-0.896,0.4c-0.555,0.248-1.137,0.375-1.73,0.375H12.502c-2.336,0-4.236-1.9-4.236-4.237
		c0-2.335,1.9-4.234,4.236-4.234H43.369 M43.369,20.705H12.502c-3.443,0-6.236,2.791-6.236,6.234c0,3.444,2.793,6.237,6.236,6.237
		h30.867c0.908,0,1.771-0.201,2.55-0.551c2.788,1.486,6.185,1.49,6.185,1.49c-2.043-1.137-3.069-2.48-3.582-3.664
		c0.684-1.002,1.084-2.209,1.084-3.512C49.605,23.496,46.812,20.705,43.369,20.705L43.369,20.705z"/>
</g>
<circle fill="#FFFFFF" cx="25.025" cy="27.031" r="1.873"/>
<circle fill="#FFFFFF" cx="33.057" cy="27.031" r="1.873"/>
<circle fill="#FFFFFF" cx="28.749" cy="10.531" r="1.873"/>
<circle fill="#FFFFFF" cx="20.644" cy="42.682" r="1.873"/>
<circle fill="#FFFFFF" cx="28.676" cy="42.682" r="1.873"/>
<circle fill="#FFFFFF" cx="36.708" cy="42.682" r="1.873"/>
</svg>
