<?xml version="1.0" encoding="utf-8"?>
<!-- Generator: Adobe Illustrator 16.0.0, SVG Export Plug-In . SVG Version: 6.00 Build 0)  -->
<!DOCTYPE svg PUBLIC "-//W3C//DTD SVG 1.1//EN" "http://www.w3.org/Graphics/SVG/1.1/DTD/svg11.dtd">
<svg version="1.1" id="Layer_1" xmlns="http://www.w3.org/2000/svg" xmlns:xlink="http://www.w3.org/1999/xlink" x="0px" y="0px"
	 width="55px" height="55px" viewBox="0 0 55 55" enable-background="new 0 0 55 55" xml:space="preserve">
<rect x="7.076" y="37.007" fill="#FFFFFF" width="20.785" height="2.707"/>
<rect x="7.076" y="41.88" fill="#FFFFFF" width="17.735" height="2.708"/>
<rect x="29.465" y="12.72" fill="#FFFFFF" width="20.785" height="2.707"/>
<rect x="29.465" y="17.594" fill="#FFFFFF" width="20.785" height="2.707"/>
<rect x="29.465" y="22.601" fill="#FFFFFF" width="17.227" height="2.708"/>
<path id="user-13-icon_1_" fill="none" stroke="#FFFFFF" stroke-width="2" stroke-miterlimit="10" d="M22.345,23.306
	c-2.83-0.652-5.463-1.223-4.188-3.628c3.883-7.319,1.029-11.233-3.069-11.233c-4.181,0-6.965,4.064-3.071,11.233
	c1.314,2.419-1.419,2.991-4.187,3.628c-2.827,0.653-2.611,2.144-2.611,4.849h19.736C24.954,25.449,25.172,23.958,22.345,23.306z"/>
<path id="user-13-icon_3_" fill="none" stroke="#FFFFFF" stroke-width="2" stroke-miterlimit="10" d="M45.308,43.782
	c-1.734-0.4-3.349-0.75-2.567-2.225c2.38-4.484,0.631-6.885-1.882-6.885c-2.562,0-4.268,2.491-1.882,6.885
	c0.806,1.483-0.87,1.834-2.566,2.225c-1.732,0.399-1.601,1.313-1.601,2.972h12.097C46.906,45.096,47.04,44.182,45.308,43.782z"/>
</svg>
