<?xml version="1.0" encoding="utf-8"?>
<!-- Generator: Adobe Illustrator 16.0.0, SVG Export Plug-In . SVG Version: 6.00 Build 0)  -->
<!DOCTYPE svg PUBLIC "-//W3C//DTD SVG 1.1//EN" "http://www.w3.org/Graphics/SVG/1.1/DTD/svg11.dtd">
<svg version="1.1" id="Layer_1" xmlns="http://www.w3.org/2000/svg" xmlns:xlink="http://www.w3.org/1999/xlink" x="0px" y="0px"
	 width="55px" height="55px" viewBox="0 0 55 55" enable-background="new 0 0 55 55" xml:space="preserve">
<g>
	<g>
		<path fill="#FFFFFF" d="M41.738,25.493c0,1.68-0.265,3.219-0.796,4.609c-0.527,1.395-1.27,2.479-2.229,3.255
			c-0.959,0.774-2.065,1.164-3.323,1.164c-0.929,0-1.734-0.249-2.417-0.74c-0.681-0.494-1.137-1.163-1.372-2.011h-0.213
			c-0.576,0.915-1.288,1.604-2.134,2.062c-0.845,0.46-1.799,0.688-2.855,0.688c-1.917,0-3.424-0.618-4.523-1.852
			c-1.1-1.235-1.649-2.904-1.649-5.009c0-2.422,0.728-4.386,2.187-5.897c1.456-1.51,3.415-2.264,5.87-2.264
			c0.895,0,1.886,0.079,2.973,0.238c1.085,0.157,2.055,0.379,2.901,0.66l-0.391,8.2v0.422c0,1.881,0.611,2.82,1.833,2.82
			c0.93,0,1.668-0.599,2.214-1.798c0.547-1.2,0.82-2.727,0.82-4.583c0-2.012-0.411-3.776-1.234-5.299
			c-0.821-1.521-1.992-2.693-3.508-3.518c-1.518-0.823-3.257-1.235-5.218-1.235c-2.506,0-4.683,0.518-6.532,1.552
			c-1.854,1.034-3.267,2.514-4.243,4.435c-0.975,1.921-1.462,4.153-1.462,6.692c0,3.41,0.91,6.029,2.731,7.863
			c1.823,1.833,4.438,2.751,7.847,2.751c2.598,0,5.307-0.529,8.128-1.587v2.891c-2.467,1.011-5.155,1.516-8.058,1.516
			c-4.348,0-7.739-1.172-10.173-3.518c-2.433-2.346-3.652-5.613-3.652-9.812c0-3.068,0.661-5.798,1.977-8.19
			c1.316-2.392,3.143-4.223,5.474-5.492c2.333-1.269,4.974-1.905,7.928-1.905c2.549,0,4.82,0.529,6.812,1.586
			c1.993,1.06,3.539,2.566,4.639,4.523C41.188,20.669,41.738,22.93,41.738,25.493z M23.612,27.732c0,2.74,1.075,4.107,3.227,4.107
			c2.268,0,3.51-1.721,3.72-5.166l0.213-4.214c-0.74-0.199-1.536-0.3-2.381-0.3c-1.505,0-2.677,0.5-3.518,1.499
			C24.031,24.659,23.612,26.014,23.612,27.732z"/>
	</g>
	<g>
		<path fill="#FFFFFF" d="M27.5,1.989c-13.879,0-25.13,11.251-25.13,25.13c0,13.878,11.251,25.131,25.13,25.131
			s25.131-11.253,25.131-25.131C52.631,13.24,41.379,1.989,27.5,1.989z M43.193,42.821c-2.033,2.039-4.404,3.657-7.105,4.828
			c-2.695,1.185-5.559,1.779-8.576,1.779c-3.053,0-5.925-0.595-8.611-1.779c-2.688-1.171-5.051-2.789-7.091-4.828
			c-2.033-2.04-3.654-4.397-4.831-7.083c-1.179-2.69-1.771-5.563-1.771-8.617c0-3.017,0.592-5.876,1.771-8.587
			c1.177-2.709,2.798-5.079,4.831-7.118c2.04-2.04,4.403-3.645,7.091-4.83c2.686-1.185,5.559-1.775,8.611-1.775
			c3.017,0,5.88,0.59,8.576,1.775c2.701,1.185,5.072,2.791,7.105,4.83c2.039,2.04,3.648,4.409,4.828,7.118
			c1.181,2.711,1.771,5.57,1.771,8.587c0,3.054-0.591,5.927-1.771,8.617C46.842,38.424,45.232,40.781,43.193,42.821z"/>
	</g>
</g>
</svg>
