<?xml version="1.0" encoding="utf-8"?>
<!-- Generator: Adobe Illustrator 16.0.0, SVG Export Plug-In . SVG Version: 6.00 Build 0)  -->
<!DOCTYPE svg PUBLIC "-//W3C//DTD SVG 1.1//EN" "http://www.w3.org/Graphics/SVG/1.1/DTD/svg11.dtd">
<svg version="1.1" id="Layer_1" xmlns="http://www.w3.org/2000/svg" xmlns:xlink="http://www.w3.org/1999/xlink" x="0px" y="0px"
	 width="117px" height="44.242px" viewBox="0 0 117 44.242" enable-background="new 0 0 117 44.242" xml:space="preserve">
<g>
	<path fill="#FFFFFF" d="M34.474,7.053H2.687C1.203,7.053,0,8.255,0,9.739v24.827c0,1.484,1.203,2.687,2.687,2.687h3.766v6.989
		l7.183-6.989h20.839c1.483,0,2.687-1.202,2.687-2.687V9.739C37.16,8.255,35.957,7.053,34.474,7.053z M31.896,17.503l-12.144,8.399
		c-0.005,0.004-0.856,0.642-1.21,0.642c-0.017,0-0.035-0.002-0.051-0.003c-0.019,0.001-0.035,0.003-0.052,0.003
		c-0.355,0-1.206-0.638-1.211-0.642L5.088,17.503c-0.486-0.349-0.674-0.902-0.115-1.724c0.382-0.56,0.802-0.811,1.453-0.377
		l12.066,8.396l12.064-8.396c0.652-0.434,1.071-0.183,1.453,0.377C32.569,16.601,32.382,17.154,31.896,17.503z"/>
	<g>
		<path fill="#FFFFFF" d="M51.482,24.949c0.104,6.135,4.021,8.66,8.557,8.66c3.248,0,5.207-0.566,6.907-1.289l0.774,3.248
			c-1.598,0.722-4.331,1.547-8.3,1.547c-7.681,0-12.269-5.052-12.269-12.578c0-7.526,4.434-13.454,11.701-13.454
			c8.146,0,10.31,7.166,10.31,11.753c0,0.927-0.102,1.65-0.154,2.113H51.482z M64.782,21.702c0.051-2.887-1.187-7.371-6.289-7.371
			c-4.588,0-6.598,4.227-6.959,7.371H64.782z"/>
		<path fill="#FFFFFF" d="M76.998,23.094h0.104c0.618-0.876,1.495-1.959,2.216-2.835l7.32-8.608h5.464l-9.64,10.258L93.443,36.6
			h-5.517l-8.608-11.959l-2.32,2.578V36.6h-4.484V0h4.484V23.094z"/>
		<path fill="#FFFFFF" d="M117,23.919c0,9.227-6.392,13.247-12.424,13.247c-6.753,0-11.959-4.948-11.959-12.835
			c0-8.351,5.464-13.248,12.371-13.248C112.154,11.083,117,16.29,117,23.919z M97.205,24.176c0,5.465,3.145,9.588,7.578,9.588
			c4.33,0,7.578-4.072,7.578-9.691c0-4.226-2.113-9.587-7.476-9.587C99.524,14.485,97.205,19.434,97.205,24.176z"/>
	</g>
</g>
</svg>
